<?xml version="1.0" encoding="UTF-8" standalone="no"?>
<!-- Created with Inkscape (http://www.inkscape.org/) -->

<svg
   xmlns:dc="http://purl.org/dc/elements/1.1/"
   xmlns:cc="http://creativecommons.org/ns#"
   xmlns:rdf="http://www.w3.org/1999/02/22-rdf-syntax-ns#"
   xmlns:svg="http://www.w3.org/2000/svg"
   xmlns="http://www.w3.org/2000/svg"
   xmlns:sodipodi="http://sodipodi.sourceforge.net/DTD/sodipodi-0.dtd"
   xmlns:inkscape="http://www.inkscape.org/namespaces/inkscape"
   width="512"
   height="512"
   id="svg2"
   sodipodi:version="0.32"
   inkscape:version="0.46+devel"
   version="1.0"
   sodipodi:docname="New document 1"
   inkscape:output_extension="org.inkscape.output.svg.inkscape">
  <defs
     id="defs4">
    <inkscape:perspective
       sodipodi:type="inkscape:persp3d"
       inkscape:vp_x="0 : 526.18109 : 1"
       inkscape:vp_y="0 : 1000 : 0"
       inkscape:vp_z="744.09448 : 526.18109 : 1"
       inkscape:persp3d-origin="372.04724 : 350.78739 : 1"
       id="perspective10" />
    <inkscape:perspective
       id="perspective20"
       inkscape:persp3d-origin="0.5 : 0.33333333 : 1"
       inkscape:vp_z="1 : 0.5 : 1"
       inkscape:vp_y="0 : 1000 : 0"
       inkscape:vp_x="0 : 0.5 : 1"
       sodipodi:type="inkscape:persp3d" />
  </defs>
  <sodipodi:namedview
     id="base"
     pagecolor="#ffffff"
     bordercolor="#666666"
     borderopacity="1.0"
     inkscape:pageopacity="0.0"
     inkscape:pageshadow="2"
     inkscape:zoom="0.24748737"
     inkscape:cx="757.60985"
     inkscape:cy="104.04333"
     inkscape:document-units="px"
     inkscape:current-layer="layer1"
     showgrid="false"
     inkscape:window-width="727"
     inkscape:window-height="688"
     inkscape:window-x="784"
     inkscape:window-y="155" />
  <metadata
     id="metadata7">
    <rdf:RDF>
      <cc:Work
         rdf:about="">
        <dc:format>image/svg+xml</dc:format>
        <dc:type
           rdf:resource="http://purl.org/dc/dcmitype/StillImage" />
        <dc:title></dc:title>
      </cc:Work>
    </rdf:RDF>
  </metadata>
  <g
     inkscape:label="Layer 1"
     inkscape:groupmode="layer"
     id="layer1">
    <g
       id="g26"
       transform="matrix(9.5191042,0,0,7.502726,-2765.4679,-1850.0636)">
      <path
         style="fill:#feccab"
         d="m 335.70905,301.18361 c -0.64504,-6.4625 -1.41219,-14.16049 -1.70479,-17.10664 l -0.532,-5.35663 -2.4338,3.58166 c -1.33859,1.96992 -3.37042,4.08293 -4.51517,4.69558 -1.56897,0.83968 -1.97623,1.83022 -1.65431,4.02358 0.33128,2.2572 -0.12288,3.26998 -2.02535,4.51653 -2.71765,1.78067 -4.081,0.78829 -4.26445,-3.10408 -0.0518,-1.1 -0.99653,0.58841 -2.09932,3.75203 -1.55262,4.45408 -2.56074,5.8915 -4.46762,6.3701 -1.35441,0.33993 -2.61598,0.45152 -2.80349,0.24797 -0.18752,-0.20356 1.54981,-5.37444 3.86072,-11.49085 4.04357,-10.7023 4.18527,-11.46358 3.76603,-20.23234 l -0.43563,-9.1116 -2.84715,3.93036 c -1.56593,2.16171 -3.76794,4.42317 -4.89336,5.02548 -2.39102,1.27963 -2.7968,0.59409 -3.23155,-5.45948 -0.26002,-3.62064 -0.63545,-2.9313 -4.28499,7.86769 -3.06569,9.07139 -4.52654,12.08005 -6.25423,12.88077 -1.23982,0.57461 -2.53038,0.76859 -2.8679,0.43107 -0.80654,-0.80654 11.47003,-33.69515 13.4235,-35.9612 1.87887,-2.17951 4.78627,-2.26698 5.59164,-0.16821 0.33384,0.86998 0.62196,3.68248 0.64026,6.25 l 0.0333,4.66821 1.95588,-2.5 c 3.52893,-4.51068 5.30117,-6 7.13979,-6 1.64848,0 1.75484,0.70048 1.17679,7.75 -0.62844,7.66393 -0.61355,7.73056 1.34149,6 4.03789,-3.57428 5.3164,-2.38003 5.35278,5 l 0.0333,6.75 1.98704,-2.5 c 4.60033,-5.78792 5.87661,-7 7.37075,-7 1.31838,0 1.58084,1.51042 1.60735,9.25 0.0174,5.0875 0.67817,13.975 1.46832,19.75 0.79015,5.775 1.45089,10.99027 1.46832,11.58948 0.0254,0.87207 -3.99079,3.41052 -5.39586,3.41052 -0.18339,0 -0.8612,-5.2875 -1.50623,-11.75 z"
         id="path40" />
      <path
         style="fill:#fea398"
         d="m 337.32087,312.18631 c -0.5024,-0.853 -2.61882,-22.15436 -2.9561,-29.7527 l -0.22195,-5 -2.86177,4.21809 c -1.57397,2.31994 -3.71147,4.48777 -4.75,4.81738 -1.41134,0.44794 -1.88823,1.55199 -1.88823,4.3714 0,3.03761 -0.47938,3.99052 -2.46196,4.89384 -2.3312,1.06217 -2.49916,0.92463 -3.16228,-2.58948 l -0.70032,-3.71123 -1.92487,5.76146 c -1.7321,5.18444 -4.95998,8.86247 -6.46073,7.36171 -0.29638,-0.29637 1.30531,-5.62033 3.55931,-11.83102 4.03703,-11.12366 4.0871,-11.42644 3.3556,-20.29215 -0.68738,-8.33082 -0.84342,-8.81412 -2.09864,-6.5 -2.15698,3.97663 -5.30148,7 -7.28042,7 -1.50677,0 -1.82569,-0.81519 -1.82569,-4.66667 0,-2.56666 -0.25132,-4.41534 -0.55849,-4.10817 -0.30717,0.30717 -2.32697,5.66967 -4.48843,11.91666 -2.77877,8.0311 -4.52198,11.62389 -5.95109,12.26527 -1.11163,0.4989 -2.2475,0.68073 -2.52416,0.40407 -1.13307,-1.13306 12.0248,-34.84146 14.27142,-36.56116 3.1668,-2.42405 4.07321,-1.42135 4.79327,5.30243 l 0.7017,6.55243 2.39697,-3.52746 c 2.27479,-3.34765 5.13039,-5.5774 7.14288,-5.5774 0.51669,0 0.70268,3.31705 0.42692,7.61401 l -0.48864,7.61402 2.69017,-1.76267 c 3.58757,-2.35067 4.42098,-1.24027 4.78468,6.37483 l 0.3028,6.34019 2.5,-4.02447 c 2.07642,-3.34261 5.52549,-6.15591 7.54705,-6.15591 0.24912,0 0.4617,4.6125 0.47239,10.25 0.0107,5.6375 0.65427,14.73132 1.43016,20.20849 0.7759,5.47717 1.19209,10.31225 0.92487,10.74462 -0.83832,1.35643 -4.23229,2.83762 -4.69642,2.04959 z m -13.99494,-34.4402 c -0.31922,-0.79773 -0.55618,-0.56078 -0.60416,0.60417 -0.0434,1.05416 0.19292,1.64479 0.52522,1.3125 0.33229,-0.3323 0.36781,-1.1948 0.079,-1.91667 z"
         id="path38" />
      <path
         style="fill:#fea062"
         d="m 337.19636,310.69269 c -1.04304,-4.81738 -2.54835,-20.56942 -2.55718,-26.75908 l -0.009,-6.5 -4.07135,4.75 c -2.23921,2.6125 -4.66849,4.75 -5.39836,4.75 -0.95884,0 -1.18591,1.05217 -0.8184,3.79219 0.44926,3.34944 0.20464,3.93071 -2.09515,4.97856 -2.37988,1.08435 -2.60512,0.99472 -2.61911,-1.04219 -0.0353,-5.13683 -1.69373,-4.78319 -3.42816,0.73102 -1.56586,4.97829 -4.76046,8.66982 -6.23054,7.19974 -0.2765,-0.27649 1.36263,-5.59275 3.6425,-11.8139 4.07593,-11.12211 4.13346,-11.46145 3.44199,-20.30066 -0.68157,-8.71244 -0.75266,-8.91329 -2.30686,-6.51712 -2.58363,3.98328 -6.06471,7.15154 -7.38203,6.71868 -0.67187,-0.22078 -1.44659,-2.58956 -1.72159,-5.26397 l -0.5,-4.86256 -4.33941,12.59686 c -3.44824,10.00988 -4.77415,12.71054 -6.45633,13.15044 -1.1643,0.30447 -2.24363,0.42688 -2.39849,0.27202 -0.71881,-0.71881 12.22494,-33.40335 14.01481,-35.38911 3.36184,-3.72976 4.67756,-2.889 4.69473,3 0.008,2.8875 0.45153,5.925 0.98469,6.75 0.53316,0.825 0.97626,1.02544 0.98469,0.44542 0.0214,-1.47387 6.54287,-8.44542 7.90018,-8.44542 0.72135,0 1.11513,2.65655 1.11513,7.52305 l 0,7.52306 2.45602,-1.60925 c 1.35082,-0.88509 2.92582,-1.31891 3.5,-0.96404 0.57419,0.35487 1.04398,3.60837 1.04398,7.23 l 0,6.58478 3.44924,-4.51733 c 2.93498,-3.84383 5.31623,-5.77027 7.13255,-5.77027 0.23001,0 0.41821,4.69244 0.41821,10.42764 0,9.20167 1.13204,21.90511 2.51414,28.21287 0.32748,1.4946 -0.27641,2.62893 -2.00124,3.75908 -2.3633,1.54849 -2.49142,1.52076 -2.95936,-0.64051 z m -13.86055,-32.49005 c -0.25354,-0.97297 -0.47766,-0.41903 -0.49804,1.23097 -0.0204,1.65 0.18706,2.44606 0.46099,1.76903 0.27392,-0.67703 0.29059,-2.02703 0.037,-3 z"
         id="path36" />
      <path
         style="fill:#fe6464"
         d="m 337.20075,309.68361 c -0.80638,-3.77853 -2.55432,-22.50825 -2.61674,-28.03922 -0.0501,-4.44282 -0.23436,-4.93012 -1.25,-3.30645 -2.40873,3.85078 -6.935,8.59567 -8.19963,8.59567 -0.92899,0 -1.15574,1.08486 -0.79261,3.79219 0.4443,3.31252 0.19395,3.93558 -1.97922,4.92574 -2.39189,1.08982 -2.51572,0.97246 -3.20985,-3.04219 l -0.72199,-4.17574 -2.19745,6.40524 c -1.54509,4.50372 -2.84952,6.64645 -4.39394,7.21777 -1.20808,0.4469 -2.1965,0.63702 -2.1965,0.42251 0,-0.21452 1.83256,-5.39061 4.07236,-11.50242 4.01542,-10.95698 4.06232,-11.24085 3.35362,-20.3001 -0.69603,-8.89746 -0.7694,-9.10962 -2.32236,-6.71536 -2.58363,3.98328 -6.06471,7.15154 -7.38203,6.71868 -0.67187,-0.22078 -1.44659,-2.58956 -1.72159,-5.26397 l -0.5,-4.86256 -4.33941,12.59686 c -3.44824,10.00988 -4.77415,12.71054 -6.45633,13.15044 -1.1643,0.30447 -2.24363,0.42688 -2.39849,0.27202 -0.71881,-0.71881 12.22494,-33.40335 14.01481,-35.38911 3.36184,-3.72976 4.67756,-2.889 4.69473,3 0.008,2.8875 0.45153,5.925 0.98469,6.75 0.53316,0.825 0.97626,1.02544 0.98469,0.44542 0.0214,-1.47387 6.54287,-8.44542 7.90018,-8.44542 0.72923,0 1.11513,2.82881 1.11513,8.17431 l 0,8.17432 2.55267,-2.39811 c 3.34405,-3.14157 4.39993,-1.5923 4.4637,6.54948 l 0.047,6 2.2074,-3 c 2.88446,-3.92016 6.43317,-7.50017 7.43378,-7.49935 0.4375,3.5e-4 0.89132,5.28785 1.00849,11.75 0.11716,6.46214 0.83468,15.70847 1.59448,20.5474 1.29106,8.22237 1.26507,8.86033 -0.39729,9.75 -2.51501,1.34599 -2.81262,1.23075 -3.35229,-1.29805 z m -13.8686,-32.5 c -0.25153,-0.9625 -0.45733,-0.175 -0.45733,1.75 0,1.925 0.2058,2.7125 0.45733,1.75 0.25152,-0.9625 0.25152,-2.5375 0,-3.5 z"
         id="path34" />
      <path
         style="fill:#fe8332"
         d="m 337.20075,309.68361 c -0.80638,-3.77853 -2.55432,-22.50825 -2.61674,-28.03922 -0.0501,-4.44282 -0.23436,-4.93012 -1.25,-3.30645 -2.54959,4.07598 -6.9696,8.59567 -8.40607,8.59567 -1.17699,0 -1.3659,0.75588 -0.86123,3.44599 0.52592,2.80338 0.27921,3.64254 -1.32297,4.5 -2.89585,1.54981 -3.10092,1.38806 -3.10092,-2.44599 0,-5.29224 -1.46835,-4.21009 -3.53096,2.60224 -1.26935,4.19238 -2.49257,6.34675 -3.90832,6.88344 -1.1334,0.42966 -2.18533,0.67155 -2.33762,0.53753 -0.15229,-0.13402 1.5302,-5.14407 3.73888,-11.13344 2.96288,-8.0346 3.99925,-12.33181 3.95277,-16.38977 -0.0579,-5.05887 -1.50154,-15.89238 -1.78958,-13.43 -0.17472,1.49361 -7.07853,9.43 -8.20309,9.43 -0.50715,0 -0.93639,-2.5875 -0.95388,-5.75 -0.0273,-4.93178 -0.21676,-5.50656 -1.33155,-4.03924 -0.71486,0.94091 -3.01324,6.71659 -5.10752,12.83484 -3.41921,9.98894 -5.48626,13.3306 -7.19127,11.6256 -0.31673,-0.31674 2.18374,-7.90983 5.55662,-16.87354 5.7714,-15.33804 9.17524,-21.1324 11.2128,-19.08758 0.43291,0.43446 0.92337,3.71492 1.08992,7.28992 l 0.3028,6.5 3,-4.1733 c 1.65,-2.29532 4.0125,-4.64817 5.25,-5.22856 2.23564,-1.04853 2.25,-1.00322 2.25,7.09761 l 0,8.15288 2.55267,-2.39811 c 3.34405,-3.14157 4.39993,-1.5923 4.4637,6.54948 l 0.047,6 2.2074,-3 c 2.88446,-3.92016 6.43317,-7.50017 7.43378,-7.49935 0.4375,3.5e-4 0.89132,5.28785 1.00849,11.75 0.11716,6.46214 0.83468,15.70847 1.59448,20.5474 1.29106,8.22237 1.26507,8.86033 -0.39729,9.75 -2.51501,1.34599 -2.81262,1.23075 -3.35229,-1.29805 z m -13.8522,-32 c -0.23835,-1.2375 -0.43337,-0.225 -0.43337,2.25 0,2.475 0.19502,3.4875 0.43337,2.25 0.23836,-1.2375 0.23836,-3.2625 0,-4.5 z"
         id="path32" />
      <path
         style="fill:#fe6602"
         d="m 337.09142,307.43945 c -0.37066,-2.47179 -1.19477,-10.45929 -1.83134,-17.75 l -1.15741,-13.25584 -2.76653,4.28812 c -1.5216,2.35846 -3.90872,4.80853 -5.30471,5.44459 -2.18739,0.99664 -2.45388,1.60583 -1.92822,4.40787 0.48637,2.59256 0.2109,3.46497 -1.35947,4.30541 -2.89585,1.54981 -3.10092,1.38806 -3.10092,-2.44599 0,-5.25513 -1.67895,-4.21935 -3.64716,2.25 -0.96214,3.1625 -1.77264,5.8066 -1.8011,5.87577 -0.0285,0.0692 -1.00963,0.41967 -2.18038,0.77887 -2.00802,0.61609 -1.90887,0.0573 1.75,-9.86257 2.92662,-7.93458 3.86045,-11.93024 3.80452,-16.27886 -0.0677,-5.26415 -1.50669,-16.20668 -1.80071,-13.69321 -0.17472,1.49361 -7.07853,9.43 -8.20309,9.43 -0.50715,0 -0.93639,-2.5875 -0.95388,-5.75 -0.0273,-4.93178 -0.21676,-5.50656 -1.33155,-4.03924 -0.71486,0.94091 -3.01324,6.71659 -5.10752,12.83484 -3.41921,9.98894 -5.48626,13.3306 -7.19127,11.6256 -0.31673,-0.31674 2.18374,-7.90983 5.55662,-16.87354 5.7714,-15.33804 9.17524,-21.1324 11.2128,-19.08758 0.43291,0.43446 0.92337,3.71492 1.08992,7.28992 l 0.3028,6.5 3,-4.1733 c 1.65,-2.29532 4.0125,-4.64817 5.25,-5.22856 2.23541,-1.04842 2.25,-1.00251 2.25,7.07829 0,7.8163 0.0713,8.06899 1.82874,6.47856 3.63209,-3.287 4.10909,-2.46496 5.42258,9.34501 0.26381,2.37192 0.42014,2.28959 3.05154,-1.60688 1.52542,-2.25878 3.82672,-4.58676 5.114,-5.17329 l 2.34052,-1.06641 -0.49021,6.17329 c -0.26961,3.39531 0.2647,12.39138 1.18735,19.99126 1.30168,10.72194 1.41126,14.13883 0.48907,15.25 -1.9694,2.37298 -2.78742,1.65628 -3.49499,-3.06213 z m -13.74287,-29.75584 c -0.23835,-1.2375 -0.43337,-0.225 -0.43337,2.25 0,2.475 0.19502,3.4875 0.43337,2.25 0.23836,-1.2375 0.23836,-3.2625 0,-4.5 z"
         id="path30" />
      <path
         style="fill:#fe0504"
         d="m 319.48438,292.18361 c -0.22896,-5.41879 -0.0357,-6.79108 1.4731,-10.46135 l 1.35194,-3.28865 1.13852,7.5 c 1.01142,6.66273 0.95287,7.63954 -0.52443,8.75 -2.62946,1.9765 -3.26966,1.51113 -3.43913,-2.5 z m -26.84156,-6.96858 c 0,-0.47588 2.70756,-8.04637 6.0168,-16.82333 5.65718,-15.0043 9.0708,-20.77488 11.09048,-18.74801 0.43291,0.43446 0.92337,3.71492 1.08992,7.28992 l 0.3028,6.5 3,-4.1733 c 1.65,-2.29532 4.0125,-4.64817 5.25,-5.22856 2.24408,-1.05249 2.24985,-1.0323 2.19413,7.6733 -0.0397,6.19823 -0.60326,10.03307 -1.94413,13.22856 l -1.88826,4.5 -0.12999,-5 c -0.12553,-4.82825 -1.6017,-15.10889 -1.85658,-12.93 -0.17472,1.49361 -7.07853,9.43 -8.20309,9.43 -0.50715,0 -0.92208,-2.565 -0.92208,-5.7 0,-7.73994 -1.15489,-6.22291 -6.30179,8.27781 -2.97143,8.37161 -4.73877,11.9989 -5.96096,12.23427 -0.95549,0.18401 -1.73725,-0.0548 -1.73725,-0.53066 z"
         id="path28" />
    </g>
  </g>
</svg>
